<?xml version="1.0" encoding="utf-8"?>
<!-- Uploaded to: SVG Repo, www.svgrepo.com, Generator: SVG Repo Mixer Tools -->
<svg fill="#000000" width="800px" height="800px" viewBox="0 0 32 32" version="1.1" xmlns="http://www.w3.org/2000/svg">
<title>flaming-claw</title>
<path d="M17.868 0.95l0 0-0-0zM26.76 8.129c3.010 4.893-1.241 7.275-2.405 5.357-2.377-3.915 4.381-9.52-6.486-12.536 2.23 2.271 2.256 5.908-0.118 7.037-2.58 1.226-6.206-0.351-4.546-4.668-4.628 2.818-5.568 7.488-3.972 11.989-1.89-1.467-5.639-4.213-2.988-7.325-3.557 0.708-4.483 3.736-2.624 5.648 3.072 3.16 0.812 7.418-1.749 2.915-1.525 7.681 9.592 9.401 9.693 14.431h1.157c-0.524-4.285-3.9-6.749-7.524-9.763l1.888-5.828c0.009 0.066 0.018 0.132 0.027 0.197 0.010-0.286 0.031-0.552 0.061-0.79 0.193 1.313 0.63 4.516 2.616 6.74 1.294-0.261 2.411-3.95 2.015-9.758l5.499-1.97c0-0 0-0 0.001-0l0 0-0.001 0c-4.022 2.737-4.875 7.335-2.462 9.644l2.791-6.484 5.335-1.395c-4.048 2.58-6.605 5.97-4.555 9.029l3.611-5.048 6.566 0.985c-7.817 1.359-9.81 6.361-10.834 10.998 0.194 1.097 0.668 2.263 1.264 3.443h0.854c-2.856-7.74 8.393-8.323 10.131-13.010 1.674-4.516 0.461-6.828-3.243-9.839z"></path>
</svg>