<?xml version="1.0" encoding="utf-8"?>
<!-- Uploaded to: SVG Repo, www.svgrepo.com, Generator: SVG Repo Mixer Tools -->
<svg fill="#000000" width="800px" height="800px" viewBox="0 0 32 32" version="1.1" xmlns="http://www.w3.org/2000/svg">
<title>frostfire</title>
<path d="M29.268 11.84c-1.764 3.54-7.732 0.859-5.758-2.952 1.982-3.825-0.585-6.417-6.122-6.523 5.249 0.751 3.305 7.369 0.51 8.309-2.469 0.83-3.73-0.418-3.243-2.296 0.778-3.005-1.569-4.375-3.498-3.936 4.065 3.502-2.328 7.395-4.956 3.571-1.657-2.412-1.467-5.208 2.004-6.523h-0c-4.403 0.154-6.268 4.369-6.304 6.523-0.137 8.065 9.587 4.138 9.766 8.054 0.195 4.262-6.267 4.926-6.559-0.328-1.719 6.924 3.691 10.528 8.333 9.322l-0.049-0.028-0-8.558 7.411-4.279 7.411 4.279 0 8.558-7.411 4.279-5.799-3.348c-0.899 1.455-2.050 2.245-3.227 2.493 5.284 3.030 12.31 3.274 16.216-0.765 4.002-4.139 3.824-10.902 1.276-15.852zM23.968 20.87c0 1.814-1.47 3.284-3.284 3.284s-3.284-1.47-3.284-3.284 1.47-3.284 3.284-3.284 3.284 1.47 3.284 3.284z"></path>
</svg>