<?xml version="1.0" encoding="utf-8"?>
<!-- Uploaded to: SVG Repo, www.svgrepo.com, Generator: SVG Repo Mixer Tools -->
<svg fill="#000000" width="800px" height="800px" viewBox="0 0 32 32" version="1.1" xmlns="http://www.w3.org/2000/svg">
<title>snowflake</title>
<path d="M29.729 15.319l0.884-4.204-3.199-2.867-4.082 1.336-0.678 3.225c-0.812-1.732-2.297-3.127-4.195-3.782l3.097-1.014 0.884-4.204-3.199-2.867-4.082 1.336-0.884 4.204 2.422 2.171c-2.010-0.174-3.942 0.503-5.389 1.766l0.669-3.181-3.199-2.867-4.082 1.336-0.884 4.204 3.199 2.867 3.096-1.013c-0.53 0.769-0.92 1.654-1.125 2.625-0.209 0.992-0.203 1.979-0.016 2.913l-2.445-2.192-4.082 1.336-0.884 4.204 3.199 2.867 4.082-1.336 0.677-3.221c0.813 1.731 2.298 3.124 4.196 3.778l-3.098 1.014-0.884 4.204 3.199 2.867 4.082-1.336 0.884-4.204-2.423-2.172c2.012 0.173 3.944-0.505 5.392-1.77l-0.67 3.186 3.199 2.867 4.082-1.336 0.884-4.204-3.199-2.867-3.102 1.015c0.531-0.77 0.922-1.655 1.127-2.628 0.209-0.993 0.203-1.98 0.016-2.915l2.449 2.196 4.082-1.336zM15.091 20.612c-2.612-0.549-4.284-3.112-3.735-5.724s3.112-4.284 5.724-3.735 4.284 3.112 3.735 5.724c-0.549 2.612-3.112 4.284-5.724 3.735zM15.249 12.757l-2.28 2.28 0.834 3.114 3.114 0.834 2.28-2.28-0.834-3.114z"></path>
</svg>