<?xml version="1.0" encoding="utf-8"?>
<!-- Uploaded to: SVG Repo, www.svgrepo.com, Generator: SVG Repo Mixer Tools -->
<svg fill="#000000" width="800px" height="800px" viewBox="0 0 32 32" version="1.1" xmlns="http://www.w3.org/2000/svg">
<title>flaming-arrow</title>
<path d="M1.328 8.094l0 0 0-0zM20.071 5.346c2.237 1.611 0.247 2.472-2.238 2.179 2.086 1.156 3.364 2.697 1.76 4.098-1.59 1.389-3.917-1.226-4.227-3.543-0.488-3.652-0.846-5.579-5.651-5.374 2.434 1.913 2.346 4.148 1.076 5.771l8.684 8.684 0.399-1.949 1.412-0.494 4.185 10.858-10.873-4.169 0.511-1.429 2.21-0.453-9.179-9.179c-2.231 0.808-5.021 0.419-6.812-2.252-0.36 2.815 1.714 4.456 4.218 5.622 8.914 4.149 3.904 9.629-1.311 4.263 1.472 8.375 17.345 14.217 23.607 9.665 5.072-3.687 1.772-19.835-7.772-22.298z"></path>
</svg>