<?xml version="1.0" encoding="utf-8"?>
<!-- Uploaded to: SVG Repo, www.svgrepo.com, Generator: SVG Repo Mixer Tools -->
<svg fill="#000000" width="800px" height="800px" viewBox="0 0 32 32" version="1.1" xmlns="http://www.w3.org/2000/svg">
<title>sapphire</title>
<path d="M25.272 2.052l-19.782 6.894 1.181 20.877 19.782-6.894-1.181-20.877zM24.109 2.803c-4.025 3.581-14.049 8.903-18.357 6.161l18.357-6.161zM5.73 9.351c4.128 2.030 3.151 11.558 1.203 19.317l-1.203-19.317zM7.746 29.105l2.895-4.683 7.399-2.503c-2.289 2.48-6.835 5.481-10.294 7.186zM10.486 24.125l-0.674-12.296 11.643-4.081 0.674 12.296-11.643 4.081zM22.209 15.604l-0.515-7.79 3.223-4.465c-0.254 3.847-1.29 9.192-2.708 12.254zM17.821 17.617c-1.329-0.094-2.27-1.387-2.102-2.888s1.383-2.641 2.712-2.547c0.224 0.016 0.436 0.066 0.635 0.146-0.102-0.997-0.354-1.982-0.76-2.892h-0l-8.097 2.746 0.551 8.537c3.587 0.809 6.059-0.718 7.339-3.1-0.092 0.005-0.185 0.006-0.279-0.001z"></path>
</svg>