<?xml version="1.0" encoding="utf-8"?>
<!-- Uploaded to: SVG Repo, www.svgrepo.com, Generator: SVG Repo Mixer Tools -->
<svg fill="#000000" width="800px" height="800px" viewBox="0 0 32 32" version="1.1" xmlns="http://www.w3.org/2000/svg">
<title>level-four-advanced</title>
<path d="M16 7.515c-4.686 0-8.486 3.799-8.486 8.486s3.799 8.486 8.486 8.486 8.486-3.799 8.486-8.486c0-4.687-3.799-8.486-8.486-8.486zM13.879 9.636h4.242v4.242h4.242v4.242h-4.242v4.242h-4.242v-4.242h-4.242v-4.242h4.242v-4.242zM1 1c6 3 7.5 1.5 10.5 4.5 0 0 0 3-1.5 4.5s-4.5 1.5-4.5 1.5c-2.998-2.999-1.499-4.5-4.499-10.5v0zM31 31c-6-3-7.5-1.5-10.5-4.5 0 0 0-3 1.5-4.5s4.5-1.5 4.5-1.5c2.999 3 1.499 4.5 4.499 10.5v0zM31 1c-3 6-1.5 7.5-4.5 10.5 0 0-3 0-4.5-1.5s-1.5-4.5-1.5-4.5c3.002-3 4.501-1.5 10.501-4.5v0zM1 31c3-6 1.5-7.5 4.5-10.5 0 0 3 0 4.5 1.5s1.5 4.5 1.5 4.5c-3.001 3.001-4.501 1.5-10.501 4.5v0z"></path>
</svg>