<?xml version="1.0" encoding="utf-8"?>
<!-- Uploaded to: SVG Repo, www.svgrepo.com, Generator: SVG Repo Mixer Tools -->
<svg fill="#000000" width="800px" height="800px" viewBox="0 0 32 32" version="1.1" xmlns="http://www.w3.org/2000/svg">
<title>thorn-arrow</title>
<path d="M28.102 19.324c-0.745 0.727-1.466 1.4-2.274 1.819-0.057-0.901-0.183-1.74-0.412-2.489 0.568-0.774 0.967-1.602 1.081-2.62h-0c-0.588 0.561-1.224 0.843-1.919 0.9-0.888-1.191-2.333-1.888-4.622-1.837-0.133-0.789-0.327-1.522-0.608-2.175 0.359-0.706 0.52-1.612 0.496-2.558v0c-0.391 0.487-0.907 0.827-1.49 1.004-1.040-1.101-2.65-1.677-5.132-1.446 0.723-0.402 1.345-0.981 1.774-1.897-0.631 0.272-1.239 0.32-1.831 0.162-0.109-2.13-1.048-3.592-2.42-4.443-0.283-0.882-0.85-1.757-1.963-2.617 0.124 0.625 0.045 1.231-0.169 1.824-0.401-0.072-0.815-0.11-1.239-0.117-0.24-0.904-1.051-2.271-1.051-2.271l-3.97 0.065c1.174 0.243 1.755 1.219 1.759 2.865-2.368 0.948-3.127 0.078-3.457-1.396l-0.161 3.919c0.892 0.289 1.985 0.401 3.307 0.31-0.2 1.727-0.091 3.080 0.296 4.099-0.436 0.366-1.053 0.574-1.755 0.709 0.821 0.581 1.801 0.883 2.787 0.81 1.081 0.933 2.746 1.163 4.885 0.823 0.030 2.168 0.58 3.472 1.426 4.282-0.111 0.734-0.568 1.307-1.203 1.753h0c1.083 0.031 2.014-0.268 2.835-0.804 1.036 0.352 2.226 0.448 3.388 0.59-0.055 0.456-0.086 0.88-0.096 1.274-0.697 0.217-1.394 0.1-2.091-0.072l0 0c0.644 1.014 1.368 1.858 2.309 2.235 0.636 2.352 2.555 2.909 4.673 3.187l-0.093 0.091c0.044 0.025 0.088 0.048 0.132 0.073-0.288 0.769-0.872 1.435-1.74 2.281h0c3.463 1.685 7.249 2.586 11.242 2.982-0.167-3.914-1.264-7.648-2.696-11.316zM10.559 9.897c-3.412 1.915-4.396-0.594-4.427-4.070 2.782-1.146 4.735 0.146 4.427 4.070zM12.617 12.807c2.45-0.598 4.189 0.382 4.194 2.755-2.977 1.228-3.775-0.507-4.194-2.755zM18.559 17.972c2.855-1.086 5.138 0.026 4.427 4.070-3.143 1.814-4.435-0.684-4.427-4.070z"></path>
</svg>