<?xml version="1.0" encoding="utf-8"?>
<!-- Uploaded to: SVG Repo, www.svgrepo.com, Generator: SVG Repo Mixer Tools -->
<svg fill="#000000" width="800px" height="800px" viewBox="0 0 32 32" version="1.1" xmlns="http://www.w3.org/2000/svg">
<title>reactor</title>
<path d="M11.978 14.682l-2.602-2.602 1.893-5.678c0.946-2.839 0.946-3.785 4.732-3.785s3.785 0.946 4.732 3.785l1.893 5.678-2.602 2.602c-1.028-1.028-2.454-1.656-4.022-1.656s-2.996 0.629-4.023 1.656zM19.785 18.704c0 2.091-1.695 3.785-3.785 3.785s-3.785-1.695-3.785-3.785c0-2.091 1.695-3.785 3.785-3.785s3.785 1.694 3.785 3.785zM21.494 17.231l3.555-0.952 3.971 4.478c1.985 2.239 2.805 2.712 0.912 5.99s-2.712 2.805-5.644 2.205l-5.863-1.2-0.952-3.555c1.404-0.376 2.661-1.297 3.445-2.655 0.784-1.357 0.952-2.906 0.576-4.31v0zM14.528 24.197l-0.952 3.555-5.863 1.2c-2.932 0.6-3.751 1.073-5.644-2.205s-1.073-3.751 0.912-5.99l3.971-4.478 3.555 0.952c-0.376 1.404-0.207 2.953 0.577 4.311s2.041 2.279 3.444 2.654v0z"></path>
</svg>