<?xml version="1.0" encoding="utf-8"?>
<!-- Uploaded to: SVG Repo, www.svgrepo.com, Generator: SVG Repo Mixer Tools -->
<svg fill="#000000" width="800px" height="800px" viewBox="0 0 32 32" version="1.1" xmlns="http://www.w3.org/2000/svg">
<title>regeneration</title>
<path d="M14.35 1c-4.598 0.307-8.062 4.174-8.062 8.897 0 1.16 0.22 2.269 0.62 3.286 0.408 1.036 0.936 2.236 5.108 6.191l1.216-0.709c-0.076-0.216-0.116-0.449-0.116-0.691 0-0.98 0.68-1.798 1.589-2.002v-1.42c-3.52-0.218-6.314-3.168-6.314-6.778 0-3.552 2.52-6.472 5.959-6.773v0zM30.113 25.762c2.036-4.177 0.453-9.14-3.596-11.502-0.994-0.58-2.055-0.943-3.126-1.1-1.092-0.161-2.385-0.299-7.861 1.373v1.418c0.224 0.041 0.442 0.123 0.65 0.244 0.839 0.489 1.202 1.494 0.922 2.391l1.218 0.711c1.947-2.971 5.872-3.94 8.967-2.135 3.044 1.776 4.288 5.44 2.826 8.6v0zM1 27.157c2.562 3.87 7.609 4.966 11.658 2.605 0.995-0.58 1.835-1.326 2.507-2.184 0.684-0.875 1.449-1.937 2.754-7.565l-1.216-0.709c-0.147 0.175-0.327 0.326-0.534 0.446-0.839 0.489-1.882 0.304-2.511-0.389l-1.218 0.711c1.573 3.188 0.442 7.107-2.654 8.913-3.045 1.776-6.809 1.031-8.786-1.827v0zM15.147 9.582c-1.853 0-3.567 0.609-4.952 1.642 0.426 0.604 0.956 1.135 1.558 1.559 0.975-0.646 2.142-1.024 3.395-1.024 1.322 0 2.547 0.419 3.552 1.131 0.883-0.216 1.775-0.389 2.679-0.485-1.529-1.732-3.754-2.824-6.232-2.824v0zM22.381 22.246c0.927-1.622 1.261-3.425 1.069-5.154-0.731 0.071-1.451 0.269-2.115 0.583 0.067 1.176-0.194 2.386-0.82 3.482-0.66 1.156-1.632 2.019-2.746 2.543-0.256 0.88-0.555 1.747-0.924 2.587 2.249-0.473 4.297-1.872 5.536-4.041zM7.917 22.234c0.927 1.621 2.306 2.816 3.883 3.512 0.305-0.674 0.495-1.404 0.558-2.142-1.042-0.529-1.948-1.362-2.575-2.459-0.66-1.156-0.915-2.438-0.806-3.674-0.627-0.664-1.22-1.358-1.755-2.102-0.721 2.204-0.544 4.696 0.696 6.864v0z"></path>
</svg>